<mxfile host="app.diagrams.net" agent="Mozilla/5.0 (Windows NT 10.0; Win64; x64) AppleWebKit/537.36 (KHTML, like Gecko) Chrome/141.0.0.0 Safari/537.36" version="28.2.7">
  <diagram name="Page-1" id="wmdyDD61jWPzqm8EUYOa">
    <mxGraphModel dx="1026" dy="556" grid="1" gridSize="15" guides="1" tooltips="1" connect="1" arrows="1" fold="1" page="1" pageScale="1" pageWidth="850" pageHeight="1100" math="0" shadow="0">
      <root>
        <mxCell id="0" />
        <mxCell id="1" parent="0" />
        <mxCell id="NZj9gLlHCYLwUK49r3Un-3" style="edgeStyle=orthogonalEdgeStyle;rounded=0;orthogonalLoop=1;jettySize=auto;html=1;entryX=0.5;entryY=0;entryDx=0;entryDy=0;" edge="1" parent="1" source="NZj9gLlHCYLwUK49r3Un-1" target="NZj9gLlHCYLwUK49r3Un-2">
          <mxGeometry relative="1" as="geometry" />
        </mxCell>
        <mxCell id="NZj9gLlHCYLwUK49r3Un-1" value="&lt;font style=&quot;font-size: 15px;&quot;&gt;Star&lt;/font&gt;" style="strokeWidth=2;html=1;shape=mxgraph.flowchart.terminator;whiteSpace=wrap;" vertex="1" parent="1">
          <mxGeometry x="330" y="20" width="100" height="60" as="geometry" />
        </mxCell>
        <mxCell id="NZj9gLlHCYLwUK49r3Un-2" value="&lt;font style=&quot;font-size: 14px;&quot;&gt;a=1&lt;/font&gt;" style="shape=parallelogram;html=1;strokeWidth=2;perimeter=parallelogramPerimeter;whiteSpace=wrap;rounded=1;arcSize=12;size=0.23;" vertex="1" parent="1">
          <mxGeometry x="330" y="130" width="100" height="60" as="geometry" />
        </mxCell>
        <mxCell id="NZj9gLlHCYLwUK49r3Un-10" style="edgeStyle=orthogonalEdgeStyle;rounded=0;orthogonalLoop=1;jettySize=auto;html=1;entryX=0.5;entryY=0;entryDx=0;entryDy=0;" edge="1" parent="1" source="NZj9gLlHCYLwUK49r3Un-4" target="NZj9gLlHCYLwUK49r3Un-8">
          <mxGeometry relative="1" as="geometry" />
        </mxCell>
        <mxCell id="NZj9gLlHCYLwUK49r3Un-18" style="edgeStyle=orthogonalEdgeStyle;rounded=0;orthogonalLoop=1;jettySize=auto;html=1;" edge="1" parent="1" source="NZj9gLlHCYLwUK49r3Un-4" target="NZj9gLlHCYLwUK49r3Un-19">
          <mxGeometry relative="1" as="geometry">
            <mxPoint x="540" y="280" as="targetPoint" />
          </mxGeometry>
        </mxCell>
        <mxCell id="NZj9gLlHCYLwUK49r3Un-4" value="&lt;font style=&quot;font-size: 15px;&quot;&gt;a&amp;lt;=5&lt;/font&gt;" style="strokeWidth=2;html=1;shape=mxgraph.flowchart.decision;whiteSpace=wrap;" vertex="1" parent="1">
          <mxGeometry x="330" y="230" width="100" height="100" as="geometry" />
        </mxCell>
        <mxCell id="NZj9gLlHCYLwUK49r3Un-7" style="edgeStyle=orthogonalEdgeStyle;rounded=0;orthogonalLoop=1;jettySize=auto;html=1;exitX=0.5;exitY=1;exitDx=0;exitDy=0;entryX=0.5;entryY=0;entryDx=0;entryDy=0;entryPerimeter=0;" edge="1" parent="1" source="NZj9gLlHCYLwUK49r3Un-2" target="NZj9gLlHCYLwUK49r3Un-4">
          <mxGeometry relative="1" as="geometry" />
        </mxCell>
        <mxCell id="NZj9gLlHCYLwUK49r3Un-8" value="&lt;font style=&quot;font-size: 15px;&quot;&gt;b=a&lt;/font&gt;" style="shape=parallelogram;html=1;strokeWidth=2;perimeter=parallelogramPerimeter;whiteSpace=wrap;rounded=1;arcSize=12;size=0.23;" vertex="1" parent="1">
          <mxGeometry x="330" y="390" width="100" height="60" as="geometry" />
        </mxCell>
        <mxCell id="NZj9gLlHCYLwUK49r3Un-16" style="edgeStyle=orthogonalEdgeStyle;rounded=0;orthogonalLoop=1;jettySize=auto;html=1;entryX=0.5;entryY=0;entryDx=0;entryDy=0;" edge="1" parent="1" source="NZj9gLlHCYLwUK49r3Un-9" target="NZj9gLlHCYLwUK49r3Un-12">
          <mxGeometry relative="1" as="geometry" />
        </mxCell>
        <mxCell id="NZj9gLlHCYLwUK49r3Un-21" style="edgeStyle=orthogonalEdgeStyle;rounded=0;orthogonalLoop=1;jettySize=auto;html=1;" edge="1" parent="1" source="NZj9gLlHCYLwUK49r3Un-9" target="NZj9gLlHCYLwUK49r3Un-20">
          <mxGeometry relative="1" as="geometry" />
        </mxCell>
        <mxCell id="NZj9gLlHCYLwUK49r3Un-9" value="B&amp;lt;=5" style="strokeWidth=2;html=1;shape=mxgraph.flowchart.decision;whiteSpace=wrap;" vertex="1" parent="1">
          <mxGeometry x="330" y="500" width="100" height="100" as="geometry" />
        </mxCell>
        <mxCell id="NZj9gLlHCYLwUK49r3Un-11" style="edgeStyle=orthogonalEdgeStyle;rounded=0;orthogonalLoop=1;jettySize=auto;html=1;entryX=0.5;entryY=0;entryDx=0;entryDy=0;entryPerimeter=0;" edge="1" parent="1" source="NZj9gLlHCYLwUK49r3Un-8" target="NZj9gLlHCYLwUK49r3Un-9">
          <mxGeometry relative="1" as="geometry" />
        </mxCell>
        <mxCell id="NZj9gLlHCYLwUK49r3Un-17" style="edgeStyle=orthogonalEdgeStyle;rounded=0;orthogonalLoop=1;jettySize=auto;html=1;entryX=0.5;entryY=0;entryDx=0;entryDy=0;" edge="1" parent="1" source="NZj9gLlHCYLwUK49r3Un-12" target="NZj9gLlHCYLwUK49r3Un-15">
          <mxGeometry relative="1" as="geometry" />
        </mxCell>
        <mxCell id="NZj9gLlHCYLwUK49r3Un-12" value="Print(&quot; &quot;)" style="shape=parallelogram;html=1;strokeWidth=2;perimeter=parallelogramPerimeter;whiteSpace=wrap;rounded=1;arcSize=12;size=0.23;" vertex="1" parent="1">
          <mxGeometry x="330" y="650" width="100" height="60" as="geometry" />
        </mxCell>
        <mxCell id="NZj9gLlHCYLwUK49r3Un-30" style="edgeStyle=orthogonalEdgeStyle;rounded=0;orthogonalLoop=1;jettySize=auto;html=1;" edge="1" parent="1" source="NZj9gLlHCYLwUK49r3Un-15">
          <mxGeometry relative="1" as="geometry">
            <mxPoint x="380" y="990" as="targetPoint" />
          </mxGeometry>
        </mxCell>
        <mxCell id="NZj9gLlHCYLwUK49r3Un-15" value="b=b+1" style="rounded=1;whiteSpace=wrap;html=1;absoluteArcSize=1;arcSize=14;strokeWidth=2;" vertex="1" parent="1">
          <mxGeometry x="310" y="780" width="140" height="60" as="geometry" />
        </mxCell>
        <mxCell id="NZj9gLlHCYLwUK49r3Un-19" value="&lt;font style=&quot;font-size: 15px;&quot;&gt;FINISH&lt;/font&gt;" style="strokeWidth=2;html=1;shape=mxgraph.flowchart.terminator;whiteSpace=wrap;" vertex="1" parent="1">
          <mxGeometry x="530" y="250" width="100" height="60" as="geometry" />
        </mxCell>
        <mxCell id="NZj9gLlHCYLwUK49r3Un-20" value="C=1" style="shape=parallelogram;html=1;strokeWidth=2;perimeter=parallelogramPerimeter;whiteSpace=wrap;rounded=1;arcSize=12;size=0.23;" vertex="1" parent="1">
          <mxGeometry x="530" y="520" width="100" height="60" as="geometry" />
        </mxCell>
        <mxCell id="NZj9gLlHCYLwUK49r3Un-25" style="edgeStyle=orthogonalEdgeStyle;rounded=0;orthogonalLoop=1;jettySize=auto;html=1;exitX=1;exitY=0.5;exitDx=0;exitDy=0;exitPerimeter=0;entryX=0;entryY=0.5;entryDx=0;entryDy=0;" edge="1" parent="1" source="NZj9gLlHCYLwUK49r3Un-22" target="NZj9gLlHCYLwUK49r3Un-24">
          <mxGeometry relative="1" as="geometry" />
        </mxCell>
        <mxCell id="NZj9gLlHCYLwUK49r3Un-27" style="edgeStyle=orthogonalEdgeStyle;rounded=0;orthogonalLoop=1;jettySize=auto;html=1;entryX=0.5;entryY=0;entryDx=0;entryDy=0;" edge="1" parent="1" source="NZj9gLlHCYLwUK49r3Un-22" target="NZj9gLlHCYLwUK49r3Un-26">
          <mxGeometry relative="1" as="geometry" />
        </mxCell>
        <mxCell id="NZj9gLlHCYLwUK49r3Un-22" value="c&amp;lt;=(2*a-1" style="strokeWidth=2;html=1;shape=mxgraph.flowchart.decision;whiteSpace=wrap;" vertex="1" parent="1">
          <mxGeometry x="530" y="650" width="100" height="100" as="geometry" />
        </mxCell>
        <mxCell id="NZj9gLlHCYLwUK49r3Un-23" style="edgeStyle=orthogonalEdgeStyle;rounded=0;orthogonalLoop=1;jettySize=auto;html=1;entryX=0.5;entryY=0;entryDx=0;entryDy=0;entryPerimeter=0;" edge="1" parent="1" source="NZj9gLlHCYLwUK49r3Un-20" target="NZj9gLlHCYLwUK49r3Un-22">
          <mxGeometry relative="1" as="geometry" />
        </mxCell>
        <mxCell id="NZj9gLlHCYLwUK49r3Un-24" value="prinln(&quot;&quot;)" style="shape=parallelogram;html=1;strokeWidth=2;perimeter=parallelogramPerimeter;whiteSpace=wrap;rounded=1;arcSize=12;size=0.23;" vertex="1" parent="1">
          <mxGeometry x="720" y="670" width="100" height="60" as="geometry" />
        </mxCell>
        <mxCell id="NZj9gLlHCYLwUK49r3Un-28" style="edgeStyle=orthogonalEdgeStyle;rounded=0;orthogonalLoop=1;jettySize=auto;html=1;" edge="1" parent="1" source="NZj9gLlHCYLwUK49r3Un-26">
          <mxGeometry relative="1" as="geometry">
            <mxPoint x="380" y="910" as="targetPoint" />
          </mxGeometry>
        </mxCell>
        <mxCell id="NZj9gLlHCYLwUK49r3Un-26" value="Print(&quot;*&quot;)" style="shape=parallelogram;html=1;strokeWidth=2;perimeter=parallelogramPerimeter;whiteSpace=wrap;rounded=1;arcSize=12;size=0.23;" vertex="1" parent="1">
          <mxGeometry x="530" y="880" width="100" height="60" as="geometry" />
        </mxCell>
        <mxCell id="NZj9gLlHCYLwUK49r3Un-31" style="edgeStyle=orthogonalEdgeStyle;rounded=0;orthogonalLoop=1;jettySize=auto;html=1;entryX=0;entryY=0.5;entryDx=0;entryDy=0;entryPerimeter=0;" edge="1" parent="1" source="NZj9gLlHCYLwUK49r3Un-29" target="NZj9gLlHCYLwUK49r3Un-4">
          <mxGeometry relative="1" as="geometry">
            <mxPoint x="160" y="290" as="targetPoint" />
            <Array as="points">
              <mxPoint x="160" y="1010" />
              <mxPoint x="160" y="280" />
            </Array>
          </mxGeometry>
        </mxCell>
        <mxCell id="NZj9gLlHCYLwUK49r3Un-29" value="a=a+1" style="rounded=1;whiteSpace=wrap;html=1;absoluteArcSize=1;arcSize=14;strokeWidth=2;" vertex="1" parent="1">
          <mxGeometry x="310" y="980" width="140" height="60" as="geometry" />
        </mxCell>
        <mxCell id="NZj9gLlHCYLwUK49r3Un-33" value="Tidak" style="text;html=1;whiteSpace=wrap;strokeColor=none;fillColor=none;align=center;verticalAlign=middle;rounded=0;" vertex="1" parent="1">
          <mxGeometry x="435" y="255" width="60" height="30" as="geometry" />
        </mxCell>
        <mxCell id="NZj9gLlHCYLwUK49r3Un-34" value="Ya" style="text;html=1;whiteSpace=wrap;strokeColor=none;fillColor=none;align=center;verticalAlign=middle;rounded=0;" vertex="1" parent="1">
          <mxGeometry x="310" y="360" width="60" height="30" as="geometry" />
        </mxCell>
        <mxCell id="NZj9gLlHCYLwUK49r3Un-35" value="Tidak" style="text;html=1;whiteSpace=wrap;strokeColor=none;fillColor=none;align=center;verticalAlign=middle;rounded=0;" vertex="1" parent="1">
          <mxGeometry x="420" y="510" width="60" height="30" as="geometry" />
        </mxCell>
        <mxCell id="NZj9gLlHCYLwUK49r3Un-36" value="Ya" style="text;html=1;whiteSpace=wrap;strokeColor=none;fillColor=none;align=center;verticalAlign=middle;rounded=0;" vertex="1" parent="1">
          <mxGeometry x="315" y="615" width="60" height="30" as="geometry" />
        </mxCell>
        <mxCell id="NZj9gLlHCYLwUK49r3Un-37" value="Ya" style="text;html=1;whiteSpace=wrap;strokeColor=none;fillColor=none;align=center;verticalAlign=middle;rounded=0;" vertex="1" parent="1">
          <mxGeometry x="525" y="795" width="60" height="30" as="geometry" />
        </mxCell>
        <mxCell id="NZj9gLlHCYLwUK49r3Un-38" value="Tidak" style="text;html=1;whiteSpace=wrap;strokeColor=none;fillColor=none;align=center;verticalAlign=middle;rounded=0;" vertex="1" parent="1">
          <mxGeometry x="645" y="660" width="60" height="30" as="geometry" />
        </mxCell>
        <mxCell id="NZj9gLlHCYLwUK49r3Un-39" value="Nama: Nayla habibah&lt;div&gt;&lt;br&gt;&lt;/div&gt;" style="text;html=1;whiteSpace=wrap;strokeColor=none;fillColor=none;align=center;verticalAlign=middle;rounded=0;" vertex="1" parent="1">
          <mxGeometry x="60" y="75" width="135" height="30" as="geometry" />
        </mxCell>
      </root>
    </mxGraphModel>
  </diagram>
</mxfile>
